<?xml version="1.0" encoding="iso-8859-1"?>
<!-- Uploaded to: SVG Repo, www.svgrepo.com, Generator: SVG Repo Mixer Tools -->
<svg height="800px" width="800px" version="1.1" id="Layer_1" xmlns="http://www.w3.org/2000/svg" xmlns:xlink="http://www.w3.org/1999/xlink" 
	 viewBox="0 0 506.4 506.4" xml:space="preserve">
<circle style="fill:#E07D46;" cx="253.2" cy="253.2" r="249.2"/>
<path style="fill:#F4EFEF;" d="M253.6,303.6L253.6,303.6l97.2-97.2c3.6-3.6,9.6-3.6,13.2,0l9.2,9.2c3.6,3.6,3.6,9.6,0,13.2L260,342
	c-2,2-4.4,2.8-6.8,2.8c-2.4,0-4.8-0.8-6.8-2.8L133.2,228.8c-3.6-3.6-3.6-9.6,0-13.2l9.2-9.2c3.6-3.6,9.6-3.6,13.2,0L253.6,303.6z"/>
<path d="M253.2,348.8c-3.6,0-6.8-1.2-9.6-4L130.4,231.6c-5.2-5.2-5.2-13.6,0-19.2l9.2-9.2c2.4-2.4,6-4,9.6-4l0,0
	c3.6,0,6.8,1.2,9.6,4l94.4,94.4l94.4-94.4c2.4-2.4,6-4,9.6-4l0,0c3.6,0,6.8,1.2,9.6,4l9.2,9.2c2.4,2.4,4,6,4,9.6s-1.2,6.8-4,9.6
	L262.8,344.8C260.4,347.2,257.2,348.8,253.2,348.8C253.6,348.8,253.6,348.8,253.2,348.8z M149.6,207.6c-1.6,0-2.8,0.4-4,1.6
	l-9.2,9.2c-2,2-2,5.6,0,7.6l113.2,113.2c1.2,1.2,2.4,1.6,4,1.6s2.8-0.4,4-1.6L370.8,226c1.2-1.2,1.6-2.4,1.6-4s-0.4-2.8-1.6-4
	l-9.2-9.2c-1.2-1.2-2.4-1.6-4-1.6l0,0c-1.6,0-2.8,0.4-4,1.6L256.4,306c-1.6,1.6-4,1.6-5.6,0l-97.6-96.8
	C152.4,208,150.8,207.6,149.6,207.6L149.6,207.6z"/>
<path d="M253.2,506.4C113.6,506.4,0,392.8,0,253.2S113.6,0,253.2,0s253.2,113.6,253.2,253.2S392.8,506.4,253.2,506.4z M253.2,8
	C118,8,8,118,8,253.2s110,245.2,245.2,245.2s245.2-110,245.2-245.2S388.4,8,253.2,8z"/>
</svg>